<?xml version="1.0" encoding="UTF-8"?>
<!DOCTYPE svg PUBLIC "-//W3C//DTD SVG 1.1//EN" "http://www.w3.org/Graphics/SVG/1.1/DTD/svg11.dtd">
<!-- Creator: CorelDRAW X7 -->
<svg xmlns="http://www.w3.org/2000/svg" xml:space="preserve" width="300px" height="300px" version="1.1" style="shape-rendering:geometricPrecision; text-rendering:geometricPrecision; image-rendering:optimizeQuality; fill-rule:evenodd; clip-rule:evenodd"
viewBox="0 0 300 300"
 xmlns:xlink="http://www.w3.org/1999/xlink">
 <defs>
  <style type="text/css">
   <![CDATA[
    .fil0 {fill:black}
    .fil1 {fill:#F30000}
   ]]>
  </style>
 </defs>
 <g id="Layer_x0020_1">
  <metadata id="CorelCorpID_0Corel-Layer"/>
  <path id="path3357" class="fil0" d="M130 20l-1 1c0,0 -11,59 -25,129 -14,71 -25,129 -26,129 0,1 0,-17 0,-47l0 48 35 0 36 0 0 -15c0,-10 0,-14 0,-15 1,0 1,0 4,0l2 0 1 2c0,1 0,8 0,15l0 13 33 0 33 0 -1 -6c-1,-3 -12,-62 -26,-130l-24 -124 -19 0 0 2c1,1 0,2 0,2 -1,1 -2,0 -2,-2l0 -2 -20 0 0 0zm21 7c0,0 0,0 1,0 0,1 1,1 0,3 0,2 0,2 -1,2 -1,1 -1,0 -1,-2 0,-2 0,-3 1,-3l0 0zm0 10l1 0 0 2c0,3 0,3 -1,3 -1,0 -2,0 -1,-3 0,-2 0,-2 1,-2zm0 10c1,0 1,0 1,1 1,1 1,5 0,5 0,1 -1,1 -2,1 0,-1 0,-2 0,-4 0,-3 0,-3 1,-3 0,0 0,0 0,0l0 0zm-1 13l1 0 2 0 0 3c0,3 0,4 -1,4 0,0 0,1 -1,1 -1,0 -1,-1 -1,-5l0 -3 0 0zm2 15c0,0 1,0 1,1 0,1 1,7 0,8 0,0 -3,0 -3,0 0,-1 0,-3 0,-5l0 -4 1 0c0,0 0,0 1,0zm0 18c1,0 1,1 1,7l0 5 -1 0c-3,0 -3,0 -3,-6 0,-5 1,-6 3,-6zm-1 24c1,0 2,0 3,1 0,0 0,3 0,7 0,6 0,7 -1,7 -1,0 -2,0 -3,0 -1,-1 -1,-1 -1,-7 0,-5 0,-7 1,-8 0,0 1,0 1,0zm1 31c1,0 1,0 2,0 0,1 1,19 0,19 0,1 -4,1 -5,0 0,0 0,-18 1,-19 0,0 1,0 2,0zm-3 42l3 0 2 0 1 2c0,1 0,7 0,14 0,10 0,11 -1,11 -1,1 -3,1 -4,1 -1,-1 -1,-2 -1,-16l0 -12 0 0zm73 82l0 8 0 0 0 -8z"/>
  <path id="path5138" class="fil1" d="M150 0c-41,0 -77,15 -106,44 -29,29 -44,65 -44,106 0,41 15,77 44,106 29,29 65,44 106,44 41,0 77,-15 106,-44 29,-29 44,-65 44,-106 0,-41 -15,-77 -44,-106 -29,-29 -65,-44 -106,-44zm0 24c35,0 64,12 89,37 25,25 37,54 37,89 0,31 -10,58 -30,82l-178 -178c24,-20 51,-30 82,-30zm-99 48l177 177c-23,18 -49,27 -78,27 -35,0 -65,-12 -89,-37 -25,-24 -37,-54 -37,-89 0,-29 9,-55 27,-78z"/>
 </g>
</svg>
